<?xml version="1.0" encoding="UTF-8" standalone="no"?>
<!DOCTYPE svg PUBLIC "-//W3C//DTD SVG 1.1//EN" "http://www.w3.org/Graphics/SVG/1.1/DTD/svg11.dtd">
<svg version="1.1" xmlns="http://www.w3.org/2000/svg" xmlns:xlink="http://www.w3.org/1999/xlink" preserveAspectRatio="xMidYMid meet" viewBox="0 0 640 640" width="640" height="640"><defs><path d="M527.73 523.8C539.71 541.6 526.95 565.56 505.49 565.56C468.39 565.56 407.43 565.56 370.33 565.56C370.33 565.56 269.66 565.56 269.66 565.56C232.57 565.56 171.61 565.56 134.51 565.56C113.05 565.56 100.29 541.6 112.27 523.79C130.23 497.09 156.03 458.73 173.99 432.03C173.99 432.03 230.17 348.5 230.17 348.5C248.14 321.79 273.94 283.43 291.9 256.72C305.32 236.78 334.67 236.78 348.09 256.72C366.05 283.43 391.86 321.79 409.82 348.5C409.82 348.5 466.01 432.02 466.01 432.02C483.97 458.73 509.77 497.09 527.73 523.8Z" id="a1AN4EVmU"></path><path d="M405.12 110.71C416.64 95.98 406.14 74.44 387.44 74.44C373.95 74.44 379.53 74.44 366.04 74.44C366.04 74.44 273.95 74.44 273.95 74.44C260.47 74.44 266.05 74.44 252.56 74.44C233.86 74.44 223.36 95.98 234.88 110.71C240.56 117.96 229.21 103.45 234.88 110.71C234.88 110.71 291.62 183.24 291.62 183.24C297.3 190.5 285.95 175.99 291.63 183.25C306.05 201.68 333.95 201.68 348.37 183.25C354.04 175.99 342.7 190.5 348.37 183.24C348.37 183.24 405.11 110.71 405.11 110.71C410.79 103.46 399.44 117.96 405.12 110.71Z" id="h1f7Ixvelj"></path><path d="M323.41 437.24C323.41 454.08 309.74 467.75 292.9 467.75C276.05 467.75 262.38 454.08 262.38 437.24C262.38 420.39 276.05 406.72 292.9 406.72C309.74 406.72 323.41 420.39 323.41 437.24Z" id="a4JvrUACsE"></path><path d="M385.52 507.43C385.52 527.63 369.12 544.03 348.92 544.03C328.72 544.03 312.32 527.63 312.32 507.43C312.32 487.23 328.72 470.83 348.92 470.83C369.12 470.83 385.52 487.23 385.52 507.43Z" id="h5CDzZFHv"></path><path d="M355.29 327.03C355.29 335.05 348.78 341.56 340.77 341.56C332.75 341.56 326.24 335.05 326.24 327.03C326.24 319.01 332.75 312.5 340.77 312.5C348.78 312.5 355.29 319.01 355.29 327.03Z" id="a3aHvSmFpZ"></path><path d="M321.95 372.89C321.95 380.9 315.44 387.41 307.42 387.41C299.41 387.41 292.9 380.9 292.9 372.89C292.9 364.87 299.41 358.36 307.42 358.36C315.44 358.36 321.95 364.87 321.95 372.89Z" id="b3yWVZjeAo"></path><path d="M376.06 412.2C376.06 423.66 366.75 432.97 355.29 432.97C343.83 432.97 334.53 423.66 334.53 412.2C334.53 400.74 343.83 391.43 355.29 391.43C366.75 391.43 376.06 400.74 376.06 412.2Z" id="d1aZVcbtd"></path></defs><g><g><g><g><filter id="shadow9037673" x="73.66" y="207.76" width="498.68" height="396.8" filterUnits="userSpaceOnUse" primitiveUnits="userSpaceOnUse"><feFlood></feFlood><feComposite in2="SourceAlpha" operator="in"></feComposite><feGaussianBlur stdDeviation="3.16"></feGaussianBlur><feOffset dx="6" dy="5" result="afterOffset"></feOffset><feFlood flood-color="#000000" flood-opacity="0.5"></feFlood><feComposite in2="afterOffset" operator="in"></feComposite><feMorphology operator="dilate" radius="3"></feMorphology><feComposite in2="SourceAlpha" operator="out"></feComposite></filter><path d="M527.73 523.8C539.71 541.6 526.95 565.56 505.49 565.56C468.39 565.56 407.43 565.56 370.33 565.56C370.33 565.56 269.66 565.56 269.66 565.56C232.57 565.56 171.61 565.56 134.51 565.56C113.05 565.56 100.29 541.6 112.27 523.79C130.23 497.09 156.03 458.73 173.99 432.03C173.99 432.03 230.17 348.5 230.17 348.5C248.14 321.79 273.94 283.43 291.9 256.72C305.32 236.78 334.67 236.78 348.09 256.72C366.05 283.43 391.86 321.79 409.82 348.5C409.82 348.5 466.01 432.02 466.01 432.02C483.97 458.73 509.77 497.09 527.73 523.8Z" id="b10C4cPSFd" fill="white" fill-opacity="1" filter="url(#shadow9037673)"></path></g><use xlink:href="#a1AN4EVmU" opacity="1" fill="#96fff3" fill-opacity="1"></use><g><use xlink:href="#a1AN4EVmU" opacity="1" fill-opacity="0" stroke="#b1a2ff" stroke-width="11" stroke-opacity="1"></use></g></g><g><g><filter id="shadow14833950" x="199.08" y="43.44" width="245.84" height="190.63" filterUnits="userSpaceOnUse" primitiveUnits="userSpaceOnUse"><feFlood></feFlood><feComposite in2="SourceAlpha" operator="in"></feComposite><feGaussianBlur stdDeviation="3.16"></feGaussianBlur><feOffset dx="4" dy="6" result="afterOffset"></feOffset><feFlood flood-color="#000000" flood-opacity="0.5"></feFlood><feComposite in2="afterOffset" operator="in"></feComposite><feMorphology operator="dilate" radius="0"></feMorphology><feComposite in2="SourceAlpha" operator="out"></feComposite></filter><path d="M405.12 110.71C416.64 95.98 406.14 74.44 387.44 74.44C373.95 74.44 379.53 74.44 366.04 74.44C366.04 74.44 273.95 74.44 273.95 74.44C260.47 74.44 266.05 74.44 252.56 74.44C233.86 74.44 223.36 95.98 234.88 110.71C240.56 117.96 229.21 103.45 234.88 110.71C234.88 110.71 291.62 183.24 291.62 183.24C297.3 190.5 285.95 175.99 291.63 183.25C306.05 201.68 333.95 201.68 348.37 183.25C354.04 175.99 342.7 190.5 348.37 183.24C348.37 183.24 405.11 110.71 405.11 110.71C410.79 103.46 399.44 117.96 405.12 110.71Z" id="b2WBMvWpC8" fill="white" fill-opacity="1" filter="url(#shadow14833950)"></path></g><use xlink:href="#h1f7Ixvelj" opacity="1" fill="#b1a2ff" fill-opacity="1"></use></g><g><g><filter id="shadow4343832" x="253.38" y="397.72" width="80.03" height="80.03" filterUnits="userSpaceOnUse" primitiveUnits="userSpaceOnUse"><feFlood></feFlood><feComposite in2="SourceAlpha" operator="in"></feComposite><feGaussianBlur stdDeviation="1"></feGaussianBlur><feOffset dx="1" dy="1" result="afterOffset"></feOffset><feFlood flood-color="#000000" flood-opacity="0.5"></feFlood><feComposite in2="afterOffset" operator="in"></feComposite><feMorphology operator="dilate" radius="1"></feMorphology><feComposite in2="SourceAlpha" operator="out"></feComposite></filter><path d="M323.41 437.24C323.41 454.08 309.74 467.75 292.9 467.75C276.05 467.75 262.38 454.08 262.38 437.24C262.38 420.39 276.05 406.72 292.9 406.72C309.74 406.72 323.41 420.39 323.41 437.24Z" id="aSekTTlLh" fill="white" fill-opacity="1" filter="url(#shadow4343832)"></path></g><use xlink:href="#a4JvrUACsE" opacity="1" fill="#a2aeff" fill-opacity="1"></use><g><use xlink:href="#a4JvrUACsE" opacity="1" fill-opacity="0" stroke="#ffffff" stroke-width="6" stroke-opacity="1"></use></g></g><g><g><filter id="shadow16774275" x="303.32" y="461.83" width="92.2" height="92.2" filterUnits="userSpaceOnUse" primitiveUnits="userSpaceOnUse"><feFlood></feFlood><feComposite in2="SourceAlpha" operator="in"></feComposite><feGaussianBlur stdDeviation="1"></feGaussianBlur><feOffset dx="1" dy="1" result="afterOffset"></feOffset><feFlood flood-color="#000000" flood-opacity="0.5"></feFlood><feComposite in2="afterOffset" operator="in"></feComposite><feMorphology operator="dilate" radius="1"></feMorphology><feComposite in2="SourceAlpha" operator="out"></feComposite></filter><path d="M385.52 507.43C385.52 527.63 369.12 544.03 348.92 544.03C328.72 544.03 312.32 527.63 312.32 507.43C312.32 487.23 328.72 470.83 348.92 470.83C369.12 470.83 385.52 487.23 385.52 507.43Z" id="as9saVqhw" fill="white" fill-opacity="1" filter="url(#shadow16774275)"></path></g><use xlink:href="#h5CDzZFHv" opacity="1" fill="#a2aeff" fill-opacity="1"></use><g><use xlink:href="#h5CDzZFHv" opacity="1" fill-opacity="0" stroke="#ffffff" stroke-width="6" stroke-opacity="1"></use></g></g><g><g><filter id="shadow5289757" x="317.24" y="303.5" width="48.05" height="48.05" filterUnits="userSpaceOnUse" primitiveUnits="userSpaceOnUse"><feFlood></feFlood><feComposite in2="SourceAlpha" operator="in"></feComposite><feGaussianBlur stdDeviation="1"></feGaussianBlur><feOffset dx="1" dy="1" result="afterOffset"></feOffset><feFlood flood-color="#000000" flood-opacity="0.5"></feFlood><feComposite in2="afterOffset" operator="in"></feComposite><feMorphology operator="dilate" radius="1"></feMorphology><feComposite in2="SourceAlpha" operator="out"></feComposite></filter><path d="M355.29 327.03C355.29 335.05 348.78 341.56 340.77 341.56C332.75 341.56 326.24 335.05 326.24 327.03C326.24 319.01 332.75 312.5 340.77 312.5C348.78 312.5 355.29 319.01 355.29 327.03Z" id="cT1OUgEl1" fill="white" fill-opacity="1" filter="url(#shadow5289757)"></path></g><use xlink:href="#a3aHvSmFpZ" opacity="1" fill="#a2aeff" fill-opacity="1"></use><g><use xlink:href="#a3aHvSmFpZ" opacity="1" fill-opacity="0" stroke="#ffffff" stroke-width="4" stroke-opacity="1"></use></g></g><g><g><filter id="shadow291040" x="283.9" y="349.36" width="48.05" height="48.05" filterUnits="userSpaceOnUse" primitiveUnits="userSpaceOnUse"><feFlood></feFlood><feComposite in2="SourceAlpha" operator="in"></feComposite><feGaussianBlur stdDeviation="1"></feGaussianBlur><feOffset dx="1" dy="1" result="afterOffset"></feOffset><feFlood flood-color="#000000" flood-opacity="0.5"></feFlood><feComposite in2="afterOffset" operator="in"></feComposite><feMorphology operator="dilate" radius="1"></feMorphology><feComposite in2="SourceAlpha" operator="out"></feComposite></filter><path d="M321.95 372.89C321.95 380.9 315.44 387.41 307.42 387.41C299.41 387.41 292.9 380.9 292.9 372.89C292.9 364.87 299.41 358.36 307.42 358.36C315.44 358.36 321.95 364.87 321.95 372.89Z" id="b1vWQNNc22" fill="white" fill-opacity="1" filter="url(#shadow291040)"></path></g><use xlink:href="#b3yWVZjeAo" opacity="1" fill="#a2aeff" fill-opacity="1"></use><g><use xlink:href="#b3yWVZjeAo" opacity="1" fill-opacity="0" stroke="#ffffff" stroke-width="4" stroke-opacity="1"></use></g></g><g><g><filter id="shadow5598122" x="325.53" y="382.43" width="60.53" height="60.53" filterUnits="userSpaceOnUse" primitiveUnits="userSpaceOnUse"><feFlood></feFlood><feComposite in2="SourceAlpha" operator="in"></feComposite><feGaussianBlur stdDeviation="1"></feGaussianBlur><feOffset dx="1" dy="1" result="afterOffset"></feOffset><feFlood flood-color="#000000" flood-opacity="0.5"></feFlood><feComposite in2="afterOffset" operator="in"></feComposite><feMorphology operator="dilate" radius="1"></feMorphology><feComposite in2="SourceAlpha" operator="out"></feComposite></filter><path d="M376.06 412.2C376.06 423.66 366.75 432.97 355.29 432.97C343.83 432.97 334.53 423.66 334.53 412.2C334.53 400.74 343.83 391.43 355.29 391.43C366.75 391.43 376.06 400.74 376.06 412.2Z" id="cmbKGylrW" fill="white" fill-opacity="1" filter="url(#shadow5598122)"></path></g><use xlink:href="#d1aZVcbtd" opacity="1" fill="#a2aeff" fill-opacity="1"></use><g><use xlink:href="#d1aZVcbtd" opacity="1" fill-opacity="0" stroke="#ffffff" stroke-width="6" stroke-opacity="1"></use></g></g></g></g></svg>